<svg width="150" height="150" viewBox="0 0 150 150" fill="none" xmlns="http://www.w3.org/2000/svg">
<g clip-path="url(#clip0)">
<path d="M75.84 8.24C88.13 8.24 100.43 8.23 112.72 8.25C117.93 8.26 119.55 9.9 119.56 15.18C119.58 30.95 119.58 46.71 119.56 62.48C119.55 67.76 117.93 69.39 112.72 69.4C104.15 69.42 95.58 69.5 87.02 69.35C84.52 69.3 83.7 70.08 83.99 72.48C84.15 73.83 84.1 75.21 84 76.57C83.79 79.64 83.77 82.44 88.23 81.46C89.04 81.28 89.88 81.75 89.91 82.54C89.94 83.41 89.08 83.61 88.27 83.61C79.95 83.6 71.63 83.61 63.31 83.6C62.7 83.6 62 83.58 61.87 82.78C61.74 82.04 62.3 81.46 62.88 81.55C69.35 82.57 67.54 77.91 67.7 74.61C67.74 73.74 67.6 72.86 67.73 72.01C68.05 69.79 67.01 69.36 65 69.38C56.43 69.48 47.86 69.43 39.29 69.42C33.62 69.41 32.07 67.85 32.07 62.1C32.06 46.46 32.06 30.81 32.07 15.17C32.07 9.94 33.74 8.27 38.95 8.26C51.26 8.22 63.55 8.24 75.84 8.24ZM76.13 10.41C63.83 10.41 51.54 10.4 39.24 10.42C34.69 10.43 34.22 10.86 34.22 15.24C34.2 31.01 34.28 46.78 34.16 62.55C34.13 66.15 35.53 67.27 39.03 67.26C63.62 67.16 88.21 67.15 112.81 67.27C116.47 67.29 117.56 65.82 117.54 62.4C117.45 46.63 117.44 30.86 117.54 15.09C117.56 11.51 116.15 10.32 112.65 10.36C100.48 10.5 88.3 10.41 76.13 10.41ZM75.67 81.42C76.41 81.42 77.17 81.32 77.9 81.44C81.01 81.92 82.66 80.98 81.97 77.52C81.87 77.04 81.96 76.53 81.96 76.03C81.96 69.39 81.96 69.39 75.47 69.39C69.72 69.39 69.72 69.39 69.72 75.3C69.71 81.42 69.71 81.42 75.67 81.42Z" fill="black"/>
<path d="M16.49 115.93C17.83 115.04 18.68 114.39 19.6 113.87C24.79 110.98 29.44 113.58 29.57 119.44C29.61 121.43 29.62 123.42 29.57 125.4C29.52 127.46 29.26 129.56 32.44 129.16C33.09 129.08 33.61 129.54 33.62 130.3C33.64 131.37 32.82 131.33 32.09 131.45C28.55 131.98 26.93 130.67 26.88 127.11C26.84 124.25 26.86 121.4 26.87 118.54C26.89 115.69 25.21 114.87 22.73 115.13C19.1 115.52 16.53 118.45 16.49 122.16C16.47 124.52 16.51 126.88 16.48 129.24C16.47 130.3 16.79 131.8 15.18 131.82C13.6 131.83 13.8 130.33 13.8 129.27C13.78 120.95 13.79 112.62 13.78 104.3C13.78 103.06 13.73 101.81 13.79 100.57C13.88 98.82 13.88 97.26 11.38 97.56C10.64 97.65 9.79 97.44 9.74 96.48C9.67 95.16 10.77 95.36 11.59 95.27C16.02 94.75 16.48 95.15 16.48 99.6C16.49 104.89 16.49 110.17 16.49 115.93Z" fill="black"/>
<path d="M132.07 123.11C130.71 123.11 129.33 123.22 127.98 123.09C125.05 122.79 124.81 123.98 126.01 126.25C128.06 130.13 132.8 130.84 136.43 127.77C137.19 127.13 137.76 125.46 139.02 126.72C140.36 128.06 138.77 128.94 137.98 129.7C134.87 132.71 129.02 132.76 125.69 129.9C122.1 126.81 121.35 120.69 124.08 116.67C126.48 113.13 131.88 111.74 135.68 113.78C138.77 115.44 139.66 118.32 139.65 121.61C139.65 123.02 138.71 123.12 137.63 123.11C135.79 123.09 133.93 123.11 132.07 123.11ZM125.32 120.82C128.9 120.82 132.09 120.75 135.28 120.85C137.17 120.91 137.24 120.19 136.71 118.66C135.86 116.18 134 115.11 131.64 115.18C128.36 115.29 126.21 117.06 125.32 120.82Z" fill="black"/>
<path d="M47.2 129.13C50.03 129.13 52.21 129.05 54.39 129.16C56.12 129.24 56.08 128.19 56.05 127.01C56.02 126.06 56.27 125.22 57.41 125.18C58.56 125.14 58.95 125.97 58.83 126.92C58.59 128.83 59.5 129.29 61.18 129.11C62.09 129.02 63.02 129.24 62.94 130.43C62.87 131.41 61.98 131.52 61.25 131.43C58.73 131.11 58.8 132.71 58.85 134.44C58.9 136.55 58.88 138.66 58.83 140.77C58.81 141.72 58.42 142.54 57.29 142.41C56.42 142.31 56.09 141.59 56.08 140.79C56.05 138.43 55.96 136.07 56.08 133.71C56.17 131.91 55.5 131.34 53.74 131.42C51.14 131.55 48.52 131.42 45.91 131.46C43.62 131.49 43.35 130.53 44.39 128.71C47.05 124.09 49.64 119.43 52.33 114.83C52.83 113.97 53.2 112.39 54.71 113.22C56.2 114.04 55.14 115.14 54.62 116.06C52.27 120.23 49.9 124.39 47.2 129.13Z" fill="black"/>
<path d="M84.08 131.99C79.61 132.04 77.77 130.28 77.63 125.75C77.56 123.52 77.62 121.29 77.61 119.06C77.6 117.29 78.19 115.11 75.05 115.58C74.4 115.68 73.83 115.13 74.01 114.41C74.1 114.03 74.68 113.46 74.97 113.5C78.38 113.94 77.55 111.5 77.61 109.69C77.64 108.95 77.63 108.2 77.61 107.46C77.58 106.52 77.81 105.56 78.82 105.47C80.12 105.36 80.26 106.45 80.39 107.51C80.63 109.41 79.38 112 81.06 113.04C82.51 113.94 84.9 113.28 86.87 113.39C87.88 113.44 89.47 112.97 89.36 114.68C89.28 116.03 87.85 115.61 86.93 115.66C80.38 115.99 80.38 115.99 80.38 122.6C80.38 123.47 80.36 124.34 80.39 125.2C80.52 129.17 82.25 130.46 86.13 129.43C87.08 129.18 87.96 128.68 88.9 128.39C89.49 128.2 90.17 128.18 90.43 128.94C90.66 129.61 90.35 130.16 89.75 130.48C87.98 131.41 86.1 131.97 84.08 131.99Z" fill="black"/>
<path d="M106.58 112.28C106.58 117 106.63 121.72 106.56 126.43C106.53 128.14 106.71 129.39 108.9 129.12C109.85 129 110.7 129.34 110.58 130.52C110.47 131.55 109.56 131.39 108.85 131.46C105.24 131.83 103.81 130.6 103.79 126.91C103.75 118.1 103.75 109.28 103.8 100.47C103.81 98.67 103.79 97.22 101.36 97.57C100.57 97.69 99.77 97.37 99.74 96.48C99.7 95.23 100.76 95.35 101.62 95.26C106.08 94.76 106.58 95.19 106.58 99.61C106.59 103.83 106.58 108.05 106.58 112.28Z" fill="black"/>
<path d="M45.48 38.83C50.96 41.87 55.82 44.54 60.64 47.28C61.41 47.72 62.94 48.03 62.37 49.26C61.6 50.92 60.42 49.53 59.6 49.08C54.48 46.31 49.43 43.42 44.33 40.62C42.3 39.51 41.49 38.57 44.12 37.14C49.46 34.25 54.73 31.25 60.04 28.32C60.84 27.88 61.88 26.91 62.5 28.33C62.96 29.38 61.77 29.72 61.05 30.12C56.09 32.92 51.13 35.68 45.48 38.83Z" fill="black"/>
<path d="M106.18 38.83C100.54 35.69 95.59 32.93 90.65 30.16C89.94 29.76 88.75 29.45 89.2 28.39C89.81 26.95 90.84 27.9 91.65 28.34C96.95 31.26 102.22 34.25 107.54 37.14C110.05 38.5 109.53 39.43 107.39 40.59C102.28 43.36 97.25 46.26 92.14 49.02C91.34 49.45 90.15 50.94 89.39 49.29C88.75 47.89 90.49 47.6 91.34 47.12C96.03 44.42 100.78 41.82 106.18 38.83Z" fill="black"/>
<path d="M69.78 55.03C68.69 54.69 68.6 54.01 69 53.02C72.91 43.27 76.79 33.5 80.71 23.75C80.98 23.08 81.5 22.26 82.36 22.77C83.1 23.21 82.89 24.07 82.6 24.79C81.59 27.32 80.57 29.84 79.56 32.36C76.85 39.13 74.16 45.91 71.41 52.67C71.07 53.55 70.91 54.65 69.78 55.03Z" fill="black"/>
</g>
<defs>
<clipPath id="clip0">
<rect width="150" height="150" fill="white"/>
</clipPath>
</defs>
</svg>
