<svg viewBox="0 0 221 181" fill="none" xmlns="http://www.w3.org/2000/svg">
<g clip-path="url(#clip0)">
<rect x="54" y="1" width="114" height="79" rx="5" stroke="currentColor" stroke-width="2"/>
<line x1="102.076" y1="61.617" x2="119.076" y2="20.617" stroke="currentColor" stroke-width="2"/>
<line x1="67.3839" y1="40.6389" x2="90.6389" y2="27.6161" stroke="currentColor" stroke-width="2" stroke-linecap="round"/>
<line x1="1" y1="-1" x2="27.6531" y2="-1" transform="matrix(-0.872506 -0.488603 -0.488603 0.872506 154 42)" stroke="currentColor" stroke-width="2" stroke-linecap="round"/>
<line x1="1" y1="-1" x2="27.6531" y2="-1" transform="matrix(-0.872506 -0.488603 -0.488603 0.872506 91 55)" stroke="currentColor" stroke-width="2" stroke-linecap="round"/>
<line x1="130.384" y1="53.6389" x2="153.639" y2="40.6161" stroke="currentColor" stroke-width="2" stroke-linecap="round"/>
<line x1="92" y1="99" x2="129" y2="99" stroke="currentColor" stroke-width="2"/>
<line x1="101" y1="100" x2="101" y2="81" stroke="currentColor" stroke-width="2"/>
<line x1="120" y1="99" x2="120" y2="80" stroke="currentColor" stroke-width="2"/>
<path d="M22 116C20.8954 116 20 116.895 20 118C20 119.105 20.8954 120 22 120V116ZM29 118H31C31 116.895 30.1046 116 29 116V118ZM27 165C27 166.105 27.8954 167 29 167C30.1046 167 31 166.105 31 165H27ZM46 145.5H48C48 145.165 47.916 144.836 47.7558 144.542L46 145.5ZM46 162H44C44 162.105 44.0082 162.209 44.0246 162.313L46 162ZM48 164L47.6406 165.967C47.7592 165.989 47.8795 166 48 166V164ZM53 166C54.1046 166 55 165.105 55 164C55 162.895 54.1046 162 53 162V166ZM22 120H29V116H22V120ZM27 118V148.5H31V118H27ZM27 148.5V165H31V148.5H27ZM30.4519 149.875C34.9002 145.18 37.9593 143.546 39.9311 143.367C41.5459 143.22 42.9294 144.047 44.2442 146.458L47.7558 144.542C46.0706 141.453 43.4541 139.03 39.5689 139.383C36.0407 139.704 32.0998 142.32 27.5481 147.125L30.4519 149.875ZM44 145.5V162H48V145.5H44ZM44.0246 162.313C44.1534 163.127 44.414 164.09 45.1868 164.846C45.9404 165.582 46.8908 165.83 47.6406 165.967L48.3594 162.033C48.0953 161.984 47.964 161.943 47.9055 161.919C47.861 161.902 47.911 161.915 47.9827 161.985C48.0569 162.057 48.0785 162.116 48.0694 162.094C48.0537 162.055 48.0154 161.94 47.9754 161.687L44.0246 162.313ZM48 166H53V162H48V166Z" fill="black"/>
</g>
<defs>
<clipPath id="clip0">
<rect width="221" height="181" fill="white"/>
</clipPath>
</defs>
</svg>
